<?xml version="1.0" encoding="utf-8"?>
<!-- Generator: Adobe Illustrator 25.3.0, SVG Export Plug-In . SVG Version: 6.00 Build 0)  -->
<svg version="1.1" id="Capa_1" xmlns:svg="http://www.w3.org/2000/svg"
	 xmlns="http://www.w3.org/2000/svg" xmlns:xlink="http://www.w3.org/1999/xlink" x="0px" y="0px" viewBox="0 0 512 512"
	 style="enable-background:new 0 0 512 512;" xml:space="preserve">
<style type="text/css">
	.st0{fill:#BBBBBB;}
</style>
<g>
	<g id="SVGRepo_bgCarrier">
	</g>
	<g id="SVGRepo_tracerCarrier">
	</g>
	<g id="svg_3">
		<path id="svg_4" class="st0" d="M257,1C115.6,1,1,115.6,1,257s114.6,256,256,256s256-114.6,256-256S398.4,1,257,1z M257,470.3
			c-117.8,0-213.3-95.5-213.3-213.3S139.2,43.7,257,43.7S470.3,139.2,470.3,257S374.8,470.3,257,470.3L257,470.3z"/>
		<path id="svg_5" class="st0" d="M364,233.3H195.2l40.4-50.1c6.9-8.5,6.9-22.4,0-30.9s-18-8.5-24.9,0l-70.5,87.3l0,0
			c-0.4,0.5-0.8,1-1.1,1.6c-0.2,0.3-0.3,0.5-0.5,0.8s-0.4,0.6-0.6,0.9c-0.2,0.3-0.3,0.6-0.5,0.9c-0.1,0.3-0.3,0.6-0.4,0.9
			c-0.1,0.3-0.3,0.7-0.4,1c-0.1,0.3-0.2,0.6-0.4,0.9c-0.1,0.3-0.2,0.6-0.3,1s-0.2,0.7-0.3,1s-0.1,0.6-0.2,1
			c-0.1,0.4-0.2,0.7-0.2,1.1c-0.1,0.4-0.1,0.8-0.1,1.2c0,0.3-0.1,0.6-0.1,0.9c-0.1,1.4-0.1,2.9,0,4.3c0,0.3,0.1,0.6,0.1,1
			s0.1,0.8,0.1,1.2c0.1,0.4,0.1,0.7,0.2,1.1c0.1,0.3,0.1,0.7,0.2,1c0.1,0.4,0.2,0.7,0.3,1s0.2,0.7,0.3,1s0.2,0.6,0.4,0.9
			c0.1,0.3,0.2,0.7,0.4,1c0.1,0.3,0.3,0.6,0.4,0.9c0.2,0.3,0.3,0.6,0.5,1c0.2,0.3,0.4,0.6,0.6,0.9c0.2,0.3,0.3,0.5,0.5,0.8
			c0.4,0.5,0.8,1.1,1.1,1.6l0,0l70.5,87.3c6.9,8.5,18,8.5,24.9,0s6.9-22.4,0-30.9L195.2,277H364c9.7,0,17.6-9.8,17.6-21.8
			S373.8,233.3,364,233.3L364,233.3z"/>
	</g>
</g>
</svg>
