<?xml version="1.0" encoding="utf-8"?>
<!-- Generator: Adobe Illustrator 25.3.0, SVG Export Plug-In . SVG Version: 6.00 Build 0)  -->
<svg version="1.1" id="icon" xmlns="http://www.w3.org/2000/svg" xmlns:xlink="http://www.w3.org/1999/xlink" x="0px" y="0px"
	 viewBox="0 0 675.1 729.7" style="enable-background:new 0 0 675.1 729.7;" xml:space="preserve">
<style type="text/css">
	.st0{fill:#558998;}
</style>
<rect x="412.6" y="400" class="st0" width="150" height="50"/>
<rect x="512.6" y="600" class="st0" width="150" height="50"/>
<rect x="462.6" y="500" class="st0" width="150" height="50"/>
<path class="st0" d="M337.6,450c-0.4-42.9-23.2-82.4-60.1-104.3L462.6,25L419.3,0L229.9,328.2c-47.3-10.6-96.6,3.6-131.1,37.6
	c-93.6,90.3-86.3,301.3-86,310.3c0.5,13.4,11.6,24,25,24h374.8c13.8,0,25-11.2,25-25c0-7.9-3.7-15.3-10-20
	C339.1,588.6,337.6,451.3,337.6,450z M210.8,374.9c41.6,0.5,75.4,33.5,76.9,75.1c0,1,0,5.2,0.4,11.7l-147.5-65.6
	C160.2,379.9,185.5,372.3,210.8,374.9z M298.8,650c-20-20.3-32.7-46.7-36.2-75h-50c1.8,26.6,10.1,52.4,24.2,75h-55.6
	c-10.3-32.4-16.5-66-18.6-100h-50c1.6,33.9,7.2,67.4,16.6,100H62.6c0.8-45.9,7.2-147.3,45.1-213.8L296,520
	c9.1,47,28.4,91.4,56.5,130.1h-53.7L298.8,650z"/>
</svg>
