<svg id="icon" xmlns="http://www.w3.org/2000/svg" viewBox="0 0 675.14 729.68"><defs><style>.cls-1{fill:#fff;stroke:#fff;stroke-width:25px;}</style></defs><rect class="cls-1" x="412.64" y="417.08" width="150" height="50"/><rect class="cls-1" x="512.64" y="617.08" width="150" height="50"/><rect class="cls-1" x="462.64" y="517.08" width="150" height="50"/><path class="cls-1" d="M400.07,476.11A122.47,122.47,0,0,0,340,371.81L525,51.11l-43.3-25-189.4,328.2a142.4,142.4,0,0,0-131.1,37.6c-93.6,90.3-86.3,301.3-86,310.3a25,25,0,0,0,25,24H475a25,25,0,0,0,15-45C401.57,614.71,400.07,477.41,400.07,476.11ZM273.27,401a77.84,77.84,0,0,1,76.9,75.1c0,1,0,5.2.4,11.7l-147.5-65.6A94.93,94.93,0,0,1,273.27,401Zm88,275.1a129.51,129.51,0,0,1-36.2-75h-50a162.48,162.48,0,0,0,24.2,75h-55.6a414.37,414.37,0,0,1-18.6-100h-50a434.63,434.63,0,0,0,16.6,100h-66.6c.8-45.9,7.2-147.3,45.1-213.8l188.3,83.8A327.33,327.33,0,0,0,415,676.21h-53.7Z" transform="translate(-62.43 -9.03)"/></svg>