<?xml version="1.0" encoding="utf-8"?>
<!-- Generator: Adobe Illustrator 25.3.0, SVG Export Plug-In . SVG Version: 6.00 Build 0)  -->
<svg version="1.1" id="Capa_1" xmlns="http://www.w3.org/2000/svg" xmlns:xlink="http://www.w3.org/1999/xlink" x="0px" y="0px"
	 viewBox="0 0 800 800" style="enable-background:new 0 0 800 800;" xml:space="preserve">
<style type="text/css">
	.st0{fill-rule:evenodd;clip-rule:evenodd;fill:#FFFFFF;}
	.st1{fill-rule:evenodd;clip-rule:evenodd;fill:#86A135;}
</style>
<g>
	<rect x="183.4" y="104.3" class="st0" width="433.2" height="591.1"/>
	<path class="st1" d="M33.3,400C33.3,197.5,197.5,33.3,400,33.3S766.7,197.5,766.7,400S602.5,766.7,400,766.7S33.3,602.5,33.3,400z
		 M416.7,183.3c18.4,0,33.3,14.9,33.3,33.3V350h133.3c18.4,0,33.3,14.9,33.3,33.3v33.3c0,18.4-14.9,33.3-33.3,33.3H450v133.3
		c0,18.4-14.9,33.3-33.3,33.3h-33.3c-18.4,0-33.3-14.9-33.3-33.3V450H216.7c-18.4,0-33.3-14.9-33.3-33.3v-33.3
		c0-18.4,14.9-33.3,33.3-33.3H350V216.7c0-18.4,14.9-33.3,33.3-33.3L416.7,183.3L416.7,183.3z"/>
</g>
</svg>
